<svg class="ml-7" width="19" height="20" fill="none" xmlns="http://www.w3.org/2000/svg">
                        <path d="M13.985 2.63c0-.262.262-.654.523-.654h1.963c.262 0 .523.261.523.654v2.094c0 .261-.261.654-.523.654h-1.963c-.261 0-.523-.262-.523-.654V2.63zM9.667 5.247c1.308 0 2.486.523 3.402 1.44h5.888V4.33c0-2.093-1.57-3.664-3.664-3.664H5.348v4.58h-.785V.667h-.392-.131v4.58h-.785V.667c-.131 0-.393.131-.524.131v4.318h-.785V1.19C1.03 1.845.376 2.892.376 4.2v2.355h5.888c.786-.785 2.094-1.308 3.403-1.308z" fill="#6200EE"></path>
                        <path d="M9.667 12.706c-1.44 0-2.748-1.178-2.748-2.748 0-1.44 1.178-2.748 2.748-2.748 1.44 0 2.748 1.177 2.748 2.748-.131 1.57-1.309 2.748-2.748 2.748zm2.355-5.496c-.261-.262-.523-.393-.916-.524-.392-.261-.916-.392-1.44-.392-.523 0-1.046.13-1.439.392-.392.131-.654.393-.916.524-.785.654-1.177 1.7-1.177 2.748 0 1.963 1.57 3.663 3.664 3.663 1.963 0 3.664-1.7 3.664-3.663-.262-1.047-.655-2.094-1.44-2.748z" fill="#6200EE"></path>
                        <path d="M4.04 19.249h11.123c1.963 0 3.664-1.702 3.664-3.664V7.21h-5.365c.523.785.916 1.701.916 2.748a4.691 4.691 0 01-4.711 4.711 4.691 4.691 0 01-4.71-4.711c0-1.047.26-1.963.915-2.748H.507v8.375c-.13 1.962 1.57 3.664 3.533 3.664z" fill="#6200EE"></path>
                    </svg>