<svg width="20" height="20" viewBox="0 0 20 20" fill="none" xmlns="http://www.w3.org/2000/svg">
<path d="M19.8207 18.3324C19.8207 19.1176 19.1664 19.641 18.3813 19.641H2.28605C1.50092 19.641 0.84668 18.9867 0.84668 18.3324V1.97554C0.84668 1.19041 1.50092 0.666992 2.28605 0.666992H18.3813C19.1664 0.666992 19.8207 1.32127 19.8207 1.97554V18.3324Z" fill="#3B27F9"/>
<path d="M13.6698 7.86426C12.0995 7.86426 11.4452 8.78037 11.0527 9.30379V8.12622H8.17383C8.17383 8.91135 8.17383 16.7628 8.17383 16.7628H11.0527V11.9209C11.0527 11.6592 11.0527 11.3975 11.1835 11.2666C11.3144 10.7432 11.8378 10.22 12.6229 10.22C13.6698 10.22 14.0623 11.0052 14.0623 12.1829V16.7628H16.9411V11.7899C16.9411 9.04195 15.6326 7.86426 13.6698 7.86426Z" fill="white"/>
<path d="M5.29586 3.93848C4.24902 3.93848 3.72559 4.59288 3.72559 5.37801C3.72559 6.16314 4.37988 6.81754 5.29586 6.81754C6.3427 6.81754 6.8661 6.16314 6.8661 5.37801C6.8661 4.46202 6.21185 3.93848 5.29586 3.93848Z" fill="white"/>
<path d="M6.73527 8.12598H3.85645V16.7625H6.73527V8.12598Z" fill="white"/>
</svg>
