<svg width="21" height="20" viewBox="0 0 21 20" fill="none" xmlns="http://www.w3.org/2000/svg">
<path d="M16.786 4.59912C16.6641 4.52733 16.5141 4.52233 16.3877 4.5858C16.2615 4.64944 16.1761 4.77276 16.161 4.9133C16.146 5.04998 16.1227 5.18662 16.0935 5.32998C15.2777 9.03248 13.6393 10.8333 11.0835 10.8333H7.33352C7.13578 10.8336 6.96555 10.9729 6.92602 11.1666L5.67602 17.0258L5.4527 18.5175C5.3243 19.1958 5.77008 19.8498 6.44836 19.9782C6.52317 19.9923 6.59907 19.9996 6.6752 20H9.18351C9.75843 20.0017 10.2597 19.6093 10.396 19.0508L11.4093 15H13.5835C16.1493 15 17.9227 12.9542 18.5768 9.23916C19.0086 7.47017 18.2942 5.61932 16.786 4.59912Z" fill="#03A9F4"/>
<path d="M16.001 1.48503C15.1776 0.551084 13.996 0.0111631 12.751 3.03448e-05H5.851C4.81839 -0.00551652 3.93925 0.74999 3.78937 1.77167L1.64687 16.0641C1.54425 16.7468 2.01445 17.3834 2.69714 17.4861C2.75909 17.4954 2.82171 17.5 2.88437 17.5H6.08436C6.28209 17.4996 6.45233 17.3604 6.49186 17.1667L7.67104 11.6667H11.0877C14.0527 11.6667 16.0119 9.59419 16.9119 5.50002C16.948 5.33682 16.9759 5.1719 16.9952 5.00584C17.2041 3.74276 16.8397 2.45225 16.001 1.48503Z" fill="#283593"/>
</svg>
