<svg width="14" height="12" viewBox="0 0 14 12" fill="none" xmlns="http://www.w3.org/2000/svg">
<path d="M12.3675 5.92709L12.7211 6.28064L13.0746 5.92709L12.7211 5.57354L12.3675 5.92709ZM7.88206 0.734521C7.6868 0.539259 7.37021 0.539259 7.17495 0.734521C6.97969 0.929783 6.97969 1.24637 7.17495 1.44163L7.88206 0.734521ZM7.03298 10.5545C6.83772 10.7498 6.83772 11.0664 7.03298 11.2616C7.22824 11.4569 7.54483 11.4569 7.74009 11.2616L7.03298 10.5545ZM0.990094 6.40646L12.3666 6.42709L12.3684 5.42709L0.991908 5.40646L0.990094 6.40646ZM12.7211 5.57354L7.88206 0.734521L7.17495 1.44163L12.014 6.28064L12.7211 5.57354ZM12.014 5.57354L7.03298 10.5545L7.74009 11.2616L12.7211 6.28064L12.014 5.57354Z" fill="#3B27F9"/>
</svg>
