<svg width="20" height="20" viewBox="0 0 20 20" fill="none" xmlns="http://www.w3.org/2000/svg">
<path d="M19.7181 18.477C19.7181 19.2621 19.0638 19.7855 18.2787 19.7855H2.18351C1.39838 19.7855 0.744141 19.1312 0.744141 18.477V2.12007C0.744141 1.33494 1.39838 0.811523 2.18351 0.811523H18.2787C19.0638 0.811523 19.7181 1.4658 19.7181 2.12007V18.477Z" fill="#3B27F9"/>
<path d="M13.5672 8.0083C11.997 8.0083 11.3427 8.92441 10.9501 9.44783V8.27027H8.07129C8.07129 9.0554 8.07129 16.9068 8.07129 16.9068H10.9501V12.0649C10.9501 11.8032 10.9501 11.5415 11.081 11.4107C11.2118 10.8872 11.7353 10.3641 12.5204 10.3641C13.5672 10.3641 13.9598 11.1492 13.9598 12.3269V16.9068H16.8386V11.934C16.8386 9.186 15.53 8.0083 13.5672 8.0083Z" fill="white"/>
<path d="M5.19332 4.08252C4.14648 4.08252 3.62305 4.73692 3.62305 5.52205C3.62305 6.30718 4.27734 6.96159 5.19332 6.96159C6.24016 6.96159 6.76356 6.30718 6.76356 5.52205C6.76356 4.60607 6.10931 4.08252 5.19332 4.08252Z" fill="white"/>
<path d="M6.63273 8.27002H3.75391V16.9066H6.63273V8.27002Z" fill="white"/>
</svg>
