<svg width="20" height="20" viewBox="0 0 20 20" fill="none" xmlns="http://www.w3.org/2000/svg">
<path d="M14.19 2.77435C14.19 2.51264 14.4517 2.12007 14.7134 2.12007H16.6762C16.9379 2.12007 17.1996 2.38178 17.1996 2.77435V4.86816C17.1996 5.12987 16.9379 5.52243 16.6762 5.52243H14.7134C14.4517 5.52243 14.19 5.26072 14.19 4.86816V2.77435ZM9.87173 5.39145C11.1803 5.39145 12.358 5.915 13.274 6.83098H19.1624V4.47585C19.1624 2.38217 17.5922 0.811523 15.4985 0.811523H5.55353V5.39145H4.76839V0.811523H4.37584C4.37584 0.811523 4.37584 0.811523 4.24498 0.811523V5.39145H3.45984V0.811523C3.32899 0.811523 3.06728 0.942506 2.93643 0.942506V5.26047H2.15129V1.33482C1.23531 1.98909 0.581055 3.03631 0.581055 4.34487V6.7H6.46953C7.25466 5.91487 8.56318 5.39145 9.87173 5.39145Z" fill="#3B27F9"/>
<path d="M9.87193 12.8502C8.43252 12.8502 7.12401 11.6724 7.12401 10.1022C7.12401 8.66276 8.30167 7.35408 9.87193 7.35408C11.3113 7.35408 12.6199 8.5319 12.6199 10.1022C12.489 11.6724 11.3113 12.8502 9.87193 12.8502ZM12.2273 7.35408C11.9656 7.09237 11.7039 6.96164 11.3113 6.83079C10.9188 6.56908 10.3953 6.43848 9.87193 6.43848C9.34851 6.43848 8.82512 6.56908 8.43256 6.83079C8.03999 6.96164 7.77826 7.22322 7.51655 7.35408C6.73142 8.00835 6.33887 9.05532 6.33887 10.1022C6.33887 12.065 7.90911 13.7658 10.0028 13.7658C11.9656 13.7658 13.6668 12.065 13.6668 10.1022C13.405 9.05532 13.0125 8.00835 12.2273 7.35408Z" fill="#3B27F9"/>
<path d="M4.24526 19.3934H15.3679C17.3308 19.3934 19.0319 17.6919 19.0319 15.7291V7.35449H13.6668C14.1903 8.13962 14.5828 9.05574 14.5828 10.1026C14.5828 12.7197 12.4891 14.8135 9.87202 14.8135C7.25491 14.8135 5.16127 12.7197 5.16127 10.1026C5.16127 9.05574 5.42295 8.13962 6.07723 7.35449H0.712161V15.7291C0.581306 17.6919 2.28244 19.3934 4.24526 19.3934Z" fill="#3B27F9"/>
</svg>
