<svg width="19" height="20" viewBox="0 0 19 20" fill="none" xmlns="http://www.w3.org/2000/svg">
<rect y="0.811523" width="18.5813" height="18.5819" rx="3.20376" fill="#3B27F9"/>
<path d="M8.25107 13.294L6.81652 14.7286C6.22178 15.3233 5.25865 15.3233 4.66442 14.7287C4.07006 14.1344 4.07006 13.1711 4.6643 12.5769L7.5339 9.70729C8.12814 9.11303 9.09136 9.11303 9.6856 9.70729C9.88369 9.90539 10.2049 9.90539 10.403 9.70729C10.6011 9.5092 10.6011 9.188 10.403 8.98991C9.41253 7.99946 7.80697 7.99946 6.81652 8.98991L3.94694 11.8595C2.95649 12.8499 2.95649 14.4555 3.94694 15.446C4.93727 16.4369 6.54295 16.4369 7.53393 15.446L8.96848 14.0114C9.16657 13.8133 9.16657 13.4921 8.96848 13.294C8.77038 13.0959 8.44917 13.0959 8.25107 13.294Z" fill="white" stroke="white" stroke-width="0.5"/>
<path d="M14.6354 4.75797C13.6449 3.76752 12.0388 3.76752 11.0484 4.75797L9.32724 6.47912C9.12915 6.67722 9.12915 6.99841 9.32724 7.19651C9.52533 7.3946 9.84653 7.3946 10.0446 7.19651L11.7658 5.47536C12.36 4.8811 13.3237 4.8811 13.918 5.47536C14.5122 6.06959 14.5122 7.03282 13.918 7.62706L10.7618 10.7833C10.1675 11.3775 9.20433 11.3775 8.61009 10.7833C8.412 10.5852 8.09081 10.5852 7.89271 10.7833C7.69462 10.9814 7.69462 11.3026 7.89271 11.5007C8.88316 12.4911 10.4887 12.4911 11.4792 11.5007L14.6354 8.34446C15.6258 7.35401 15.6258 5.74842 14.6354 4.75797Z" fill="white" stroke="white" stroke-width="0.5"/>
</svg>
